<?xml version="1.0" standalone="no"?>
<!DOCTYPE svg PUBLIC "-//W3C//DTD SVG 20010904//EN"
 "http://www.w3.org/TR/2001/REC-SVG-20010904/DTD/svg10.dtd">
<svg version="1.0" xmlns="http://www.w3.org/2000/svg"
 width="129.000000pt" height="61.000000pt" viewBox="0 0 129.000000 61.000000"
 preserveAspectRatio="xMidYMid meet">

<g transform="translate(0.000000,61.000000) scale(0.100000,-0.100000)"
fill="#000000" stroke="none">
<path d="M394 520 c-154 -5 -178 -14 -214 -72 -37 -61 -7 -148 64 -182 39 -18
220 -23 231 -6 7 12 42 13 48 3 3 -5 8 -34 12 -65 7 -57 7 -58 -28 -93 l-35
-35 -95 0 c-72 0 -98 -4 -107 -15 -11 -13 2 -15 109 -15 138 0 188 14 223 62
13 19 21 47 22 73 1 46 -3 55 -28 59 -9 1 -27 13 -42 27 -23 22 -35 24 -151
29 -122 5 -126 6 -149 33 -35 41 -33 99 5 138 29 28 31 29 138 29 79 0 115 4
129 14 10 8 17 16 14 18 -3 2 -68 1 -146 -2z"/>
<path d="M282 440 c-31 -29 -29 -73 4 -99 31 -24 56 -26 87 -7 12 7 54 32 94
55 102 59 94 71 -51 71 -99 0 -115 -2 -134 -20z"/>
<path d="M420 223 c-12 -5 -145 -79 -159 -90 -2 -1 2 -9 9 -18 9 -11 34 -15
100 -15 73 0 92 3 114 21 59 46 7 128 -64 102z"/>
</g>
</svg>
